<?xml version="1.0" encoding="UTF-8" standalone="no"?>
<!-- Created with Inkscape (http://www.inkscape.org/) -->

<svg
   width="408.26291mm"
   height="221.18129mm"
   viewBox="0 0 408.26291 221.18129"
   version="1.1"
   id="svg23543"
   sodipodi:docname="slide-backdrop.svg"
   inkscape:version="1.2.1 (9c6d41e410, 2022-07-14)"
   inkscape:export-filename="slide-backdrop.pdf"
   inkscape:export-xdpi="96"
   inkscape:export-ydpi="96"
   xmlns:inkscape="http://www.inkscape.org/namespaces/inkscape"
   xmlns:sodipodi="http://sodipodi.sourceforge.net/DTD/sodipodi-0.dtd"
   xmlns="http://www.w3.org/2000/svg"
   xmlns:svg="http://www.w3.org/2000/svg">
  <sodipodi:namedview
     id="namedview23545"
     pagecolor="#ffffff"
     bordercolor="#666666"
     borderopacity="1.0"
     inkscape:showpageshadow="2"
     inkscape:pageopacity="0.0"
     inkscape:pagecheckerboard="0"
     inkscape:deskcolor="#d1d1d1"
     inkscape:document-units="mm"
     showgrid="false"
     inkscape:zoom="0.90065236"
     inkscape:cx="822.18183"
     inkscape:cy="492.42085"
     inkscape:window-width="2560"
     inkscape:window-height="1391"
     inkscape:window-x="0"
     inkscape:window-y="0"
     inkscape:window-maximized="1"
     inkscape:current-layer="layer1" />
  <defs
     id="defs23540" />
  <g
     inkscape:label="Layer 1"
     inkscape:groupmode="layer"
     id="layer1"
     transform="translate(-134.56157,19.881589)">
    <path
       id="use24021"
       style="fill:#eb1b29;fill-opacity:1;fill-rule:nonzero;stroke:none;stroke-width:0.0352778"
       d="m 532.28364,94.333189 v -9.09461 l 10.07886,-7.86342 v 9.09461 z m -31.30197,17.677701 v -9.09814 l 10.08592,-7.870471 v 9.098131 z m -20.87034,-9.09814 10.08592,-7.870471 v 9.098131 l -10.08592,7.86695 z m -10.60097,-33.813741 10.14589,7.91632 -10.25525,7.99747 -0.0353,0.0282 -10.11061,-7.88811 v -0.0529 z m 0,-35.35187 10.14589,7.91634 -10.25525,8.001 -0.0353,0.0282 -10.11061,-7.89164 v -0.0494 z m 10.43164,-17.68475 10.1459,7.91633 -10.25525,8.00101 -0.0353,0.0247 -10.11062,-7.88811 v -0.0529 z m 31.30199,-17.677698 10.14587,7.916333 -10.25525,8.001005 -0.0353,0.0282 -10.11061,-7.891643 v -0.04939 z m 10.25524,17.367248 -10.07886,7.86695 v -9.09109 l 10.07886,-7.866941 z m 0.067,16.22779 -0.0353,0.0247 -10.11061,-7.88811 v -0.0529 l 10.25525,-8.001 10.14587,7.91633 z m 10.36462,1.4605 -10.07887,7.86341 v -9.10166 l 10.07887,-7.86342 z m 0.067,16.22425 -0.0353,0.0282 -10.11062,-7.89164 v -0.0494 l 10.25525,-8.00453 10.14589,7.91634 z m 10.3646,1.44991 -10.07885,7.86695 v -9.09109 l 10.07885,-7.86694 z m -10.3646,33.89841 -0.0176,0.0388 -10.12824,-7.90223 v -0.0494 l 10.25524,-8.00099 10.14589,7.91632 z m -20.57754,0.22578 10.07887,-7.86342 v 9.09109 l -10.07887,7.85636 z m -10.72445,17.451921 -0.0353,0.0247 -10.11061,-7.888111 v -0.0529 l 10.25525,-8.001 10.14589,7.91634 z m -20.87034,0 -0.0353,0.0247 -10.10355,-7.884581 v -0.06 l 10.2482,-7.99748 10.14588,7.91634 z m -0.06,-16.231311 -10.07886,7.86342 v -9.08403 l 10.07886,-7.86342 z m 0,-35.35538 -10.07886,7.86694 v -9.0805 l 10.07886,-7.86694 z m 10.4387,-17.67064 -10.08592,7.87047 v -9.10166 l 10.08592,-7.87048 z m 20.75039,-9.45445 -10.25173,8.00101 -0.0353,0.0247 -10.1106,-7.88811 v -0.0529 l 10.25526,-8.001 z m 20.97617,44.80984 -10.07887,7.85988 v -9.0946 l 10.07887,-7.86342 z m -20.79626,16.22424 -0.0353,0.0282 -10.11062,-7.88811 v -0.0529 l 10.25526,-8.00099 10.14588,7.91632 z m -20.58458,9.31686 v -9.09108 l 10.08592,-7.87047 v 9.09108 z m -0.17639,-60.58252 10.14589,7.91634 -10.25525,8.001 -0.0353,0.0282 -10.11061,-7.89164 v -0.0494 z m 20.69395,-0.30691 -10.07887,7.86341 v -9.10166 l 10.07887,-7.86342 z m 10.43164,17.66358 -10.07887,7.86694 v -9.0805 l 10.07887,-7.86694 z m 0.067,16.22778 -0.0353,0.0247 -10.11062,-7.88811 v -0.0529 l 10.2482,-7.99394 10.14589,7.91633 z m -20.57753,9.32391 v -9.10166 l 10.07887,-7.86342 v 9.09814 z m -10.72444,8.3573 -0.0353,0.0282 -10.11061,-7.88811 v -0.0529 l 10.25525,-8.00099 10.14589,7.91632 z m -0.06,-16.23129 -10.08592,7.87399 v -9.10166 l 10.08592,-7.87047 z m 10.43164,-17.6777 -10.08592,7.87047 v -9.08403 l 10.08592,-7.87047 z m 10.49866,-1.43933 -0.0353,0.0282 -10.11062,-7.89164 v -0.0494 l 10.25526,-8.00453 10.14588,7.91634 z m -10.43164,17.66711 -0.0353,0.0247 -10.11062,-7.88811 v -0.0529 l 10.2482,-7.99394 10.14236,7.91633 z m -31.01622,-7.86342 v -0.0529 l 10.2482,-7.99394 10.14236,7.91633 -10.24467,7.99395 -0.0353,0.0247 z m 72.9615,17.40605 -10.36461,-8.08566 v -9.36272 l 10.36461,-8.08567 0.067,-0.0529 v -9.53558 l 0.10936,-0.0882 -10.541,-8.22325 v -9.37684 l 0.10936,-0.0847 -10.541,-8.22678 V 6.385671 l 0.10936,-0.08467 -10.71738,-8.360833 -10.54101,8.22325 -0.067,0.05292 v 9.535581 l -10.25878,8.00453 -10.43517,-8.14211 -10.541,8.22325 -0.067,0.0529 v 9.54617 l -10.36461,8.08919 -0.067,0.0529 v 9.70844 l 10.43164,8.14212 v 9.35919 l -10.36461,8.08566 -0.067,0.0529 v 9.71198 l 10.42459,8.13505 v 9.539121 l 10.61861,8.28675 0.1658,-0.14817 10.26231,-8.001 10.43517,8.14211 0.17286,-0.13406 10.37167,-8.09272 0.067,-0.0529 v -9.542641 l 0.0917,-0.0741 10.16352,-7.91986 10.32228,8.05392 0.11995,0.0882 0.0988,-0.0847 10.43163,-8.14212 0.067,-0.0529 v -9.62378 h -0.067 v -0.14111 M 490.55,94.333189 v -9.09461 l 10.07886,-7.86342 v 9.09461 z m -31.30197,17.677701 v -9.09814 l 10.08592,-7.870471 v 9.098131 z m -20.87034,-9.09814 10.08592,-7.870471 v 9.098131 l -10.08592,7.86695 z m -10.60097,-33.813741 10.14589,7.91632 -10.25525,7.99747 -0.0353,0.0282 -10.11061,-7.88811 v -0.0529 z m 0,-35.35187 10.14589,7.91634 -10.25525,8.001 -0.0353,0.0282 -10.11061,-7.89164 v -0.0494 z m 10.43164,-17.68475 10.1459,7.91633 -10.25525,8.00101 -0.0353,0.0247 -10.11062,-7.88811 v -0.0529 z m 31.30199,-17.677698 10.14587,7.916333 -10.25525,8.001005 -0.0353,0.0282 -10.11061,-7.891643 v -0.04939 z m 10.25524,17.367248 -10.07886,7.86695 v -9.09109 l 10.07886,-7.866941 z m 0.067,16.22779 -0.0353,0.0247 -10.11061,-7.88811 v -0.0529 l 10.25525,-8.001 10.14587,7.91633 z m 10.36462,1.4605 -10.07887,7.86341 v -9.10166 l 10.07887,-7.86342 z m 0.067,16.22425 -0.0353,0.0282 -10.11062,-7.89164 v -0.0494 l 10.25525,-8.00453 10.14589,7.91634 z m 10.3646,1.44991 -10.07885,7.86695 v -9.09109 l 10.07885,-7.86694 z m -10.3646,33.89841 -0.0176,0.0388 -10.12824,-7.90223 v -0.0494 l 10.25524,-8.00099 10.14589,7.91632 z m -20.57754,0.22578 10.07887,-7.86342 v 9.09109 l -10.07887,7.85636 z m -10.72445,17.451921 -0.0353,0.0247 -10.11061,-7.888111 v -0.0529 l 10.25525,-8.001 10.14589,7.91634 z m -20.87034,0 -0.0353,0.0247 -10.10355,-7.884581 v -0.06 l 10.2482,-7.99748 10.14588,7.91634 z m -0.06,-16.231311 -10.07886,7.86342 v -9.08403 l 10.07886,-7.86342 z m 0,-35.35538 -10.07886,7.86694 v -9.0805 l 10.07886,-7.86694 z m 10.4387,-17.67064 -10.08592,7.87047 v -9.10166 l 10.08592,-7.87048 z m 20.75039,-9.45445 -10.25173,8.00101 -0.0353,0.0247 -10.1106,-7.88811 v -0.0529 l 10.25526,-8.001 z m 20.97617,44.80984 -10.07887,7.85988 v -9.0946 l 10.07887,-7.86342 z m -20.79626,16.22424 -0.0353,0.0282 -10.11062,-7.88811 v -0.0529 l 10.25526,-8.00099 10.14588,7.91632 z m -20.58458,9.31686 v -9.09108 l 10.08592,-7.87047 v 9.09108 z m -0.17639,-60.58252 10.14589,7.91634 -10.25525,8.001 -0.0353,0.0282 -10.11061,-7.89164 v -0.0494 z m 20.69395,-0.30691 -10.07887,7.86341 v -9.10166 l 10.07887,-7.86342 z m 10.43164,17.66358 -10.07887,7.86694 v -9.0805 l 10.07887,-7.86694 z m 0.067,16.22778 -0.0353,0.0247 -10.11062,-7.88811 v -0.0529 l 10.2482,-7.99394 10.14589,7.91633 z m -20.57753,9.32391 v -9.10166 l 10.07887,-7.86342 v 9.09814 z m -10.72444,8.3573 -0.0353,0.0282 -10.11061,-7.88811 v -0.0529 l 10.25525,-8.00099 10.14589,7.91632 z m -0.06,-16.23129 -10.08592,7.87399 v -9.10166 l 10.08592,-7.87047 z m 10.43164,-17.6777 -10.08592,7.87047 v -9.08403 l 10.08592,-7.87047 z m 10.49866,-1.43933 -0.0353,0.0282 -10.11062,-7.89164 v -0.0494 l 10.25526,-8.00453 10.14588,7.91634 z m -10.43164,17.66711 -0.0353,0.0247 -10.11062,-7.88811 v -0.0529 l 10.2482,-7.99394 10.14236,7.91633 z m -31.01622,-7.86342 v -0.0529 l 10.2482,-7.99394 10.14236,7.91633 -10.24467,7.99395 -0.0353,0.0247 z m 72.9615,17.40605 -10.36461,-8.08566 v -9.36272 l 10.36461,-8.08567 0.067,-0.0529 v -9.53558 l 0.10936,-0.0882 -10.541,-8.22325 v -9.37684 l 0.10936,-0.0847 -10.541,-8.22678 V 6.385671 l 0.10936,-0.08467 -10.71738,-8.360833 -10.54101,8.22325 -0.067,0.05292 v 9.535581 l -10.25878,8.00453 -10.43517,-8.14211 -10.541,8.22325 -0.067,0.0529 v 9.54617 l -10.36461,8.08919 -0.067,0.0529 v 9.70844 l 10.43164,8.14212 v 9.35919 l -10.36461,8.08566 -0.067,0.0529 v 9.71198 l 10.42459,8.13505 v 9.539121 l 10.61861,8.28675 0.1658,-0.14817 10.26231,-8.001 10.43517,8.14211 0.17286,-0.13406 10.37167,-8.09272 0.067,-0.0529 v -9.542641 l 0.0917,-0.0741 10.16352,-7.91986 10.32228,8.05392 0.11995,0.0882 0.0988,-0.0847 10.43163,-8.14212 0.067,-0.0529 v -9.62378 h -0.067 v -0.14111 m -72.96137,17.45906 v -9.09461 l 10.07886,-7.86342 v 9.09461 z m -31.30197,17.677701 v -9.09814 l 10.08592,-7.870471 v 9.098131 z m -20.87034,-9.09814 10.08592,-7.870471 v 9.098131 l -10.08592,7.86695 z m -10.60097,-33.813741 10.14589,7.91632 -10.25525,7.99747 -0.0353,0.0282 -10.11061,-7.88811 v -0.0529 z m 0,-35.35187 10.14589,7.91634 -10.25525,8.001 -0.0353,0.0282 -10.11061,-7.89164 v -0.0494 z m 10.43164,-17.68475 10.1459,7.91633 -10.25525,8.00101 -0.0353,0.0247 -10.11062,-7.88811 v -0.0529 z m 31.30199,-17.677698 10.14587,7.916333 -10.25525,8.001005 -0.0353,0.0282 -10.11061,-7.891643 v -0.04939 z m 10.25524,17.367248 -10.07886,7.86695 v -9.09109 l 10.07886,-7.866941 z m 0.067,16.22779 -0.0353,0.0247 -10.11061,-7.88811 v -0.0529 l 10.25525,-8.001 10.14587,7.91633 z m 10.36462,1.4605 -10.07887,7.86341 v -9.10166 l 10.07887,-7.86342 z m 0.067,16.22425 -0.0353,0.0282 -10.11062,-7.89164 v -0.0494 l 10.25525,-8.00453 10.14589,7.91634 z m 10.3646,1.44991 -10.07885,7.86695 v -9.09109 l 10.07885,-7.86694 z m -10.3646,33.89841 -0.0176,0.0388 -10.12824,-7.90223 v -0.0494 l 10.25524,-8.00099 10.14589,7.91632 z m -20.57754,0.22578 10.07887,-7.86342 v 9.09109 l -10.07887,7.85636 z m -10.72445,17.451921 -0.0353,0.0247 -10.11061,-7.888111 v -0.0529 l 10.25525,-8.001 10.14589,7.91634 z m -20.87034,0 -0.0353,0.0247 -10.10355,-7.884581 v -0.06 l 10.2482,-7.99748 10.14588,7.91634 z m -0.06,-16.231311 -10.07886,7.86342 v -9.08403 l 10.07886,-7.86342 z m 0,-35.35538 -10.07886,7.86694 v -9.0805 l 10.07886,-7.86694 z m 10.4387,-17.67064 -10.08592,7.87047 v -9.10166 l 10.08592,-7.87048 z m 20.75039,-9.45445 -10.25173,8.00101 -0.0353,0.0247 -10.1106,-7.88811 v -0.0529 l 10.25526,-8.001 z m 20.97617,44.80984 -10.07887,7.85988 v -9.0946 l 10.07887,-7.86342 z m -20.79626,16.22424 -0.0353,0.0282 -10.11062,-7.88811 v -0.0529 l 10.25526,-8.00099 10.14588,7.91632 z m -20.58458,9.31686 v -9.09108 l 10.08592,-7.87047 v 9.09108 z m -0.17639,-60.58252 10.14589,7.91634 -10.25525,8.001 -0.0353,0.0282 -10.11061,-7.89164 v -0.0494 z m 20.69395,-0.30691 -10.07887,7.86341 v -9.10166 l 10.07887,-7.86342 z m 10.43164,17.66358 -10.07887,7.86694 v -9.0805 l 10.07887,-7.86694 z m 0.067,16.22778 -0.0353,0.0247 -10.11062,-7.88811 v -0.0529 l 10.2482,-7.99394 10.14589,7.91633 z m -20.57753,9.32391 v -9.10166 l 10.07887,-7.86342 v 9.09814 z m -10.72444,8.3573 -0.0353,0.0282 -10.11061,-7.88811 v -0.0529 l 10.25525,-8.00099 10.14589,7.91632 z m -0.06,-16.23129 -10.08592,7.87399 v -9.10166 l 10.08592,-7.87047 z m 10.43164,-17.6777 -10.08592,7.87047 v -9.08403 l 10.08592,-7.87047 z m 10.49866,-1.43933 -0.0353,0.0282 -10.11062,-7.89164 v -0.0494 l 10.25526,-8.00453 10.14588,7.91634 z m -10.43164,17.66711 -0.0353,0.0247 -10.11062,-7.88811 v -0.0529 l 10.2482,-7.99394 10.14236,7.91633 z m -31.01622,-7.86342 v -0.0529 l 10.2482,-7.99394 10.14236,7.91633 -10.24467,7.99395 -0.0353,0.0247 z m 72.9615,17.40605 -10.36461,-8.08566 v -9.36272 l 10.36461,-8.08567 0.067,-0.0529 v -9.53558 l 0.10936,-0.0882 -10.541,-8.22325 v -9.37684 l 0.10936,-0.0847 -10.541,-8.22678 V 6.385671 l 0.10936,-0.08467 -10.71738,-8.360833 -10.54101,8.22325 -0.067,0.05292 v 9.535581 l -10.25878,8.00453 -10.43517,-8.14211 -10.541,8.22325 -0.067,0.0529 v 9.54617 l -10.36461,8.08919 -0.067,0.0529 v 9.70844 l 10.43164,8.14212 v 9.35919 l -10.36461,8.08566 -0.067,0.0529 v 9.71198 l 10.42459,8.13505 v 9.539121 l 10.61861,8.28675 0.1658,-0.14817 10.26231,-8.001 10.43517,8.14211 0.17286,-0.13406 10.37167,-8.09272 0.067,-0.0529 v -9.542641 l 0.0917,-0.0741 10.16352,-7.91986 10.32228,8.05392 0.11995,0.0882 0.0988,-0.0847 10.43163,-8.14212 0.067,-0.0529 v -9.62378 h -0.067 v -0.14111 m -62.7977,0.07084 v -9.09461 l 10.07886,-7.86342 v 9.09461 z M 344.218,94.62267 v -9.09814 l 10.08592,-7.87047 v 9.09813 z m -20.87034,-9.09814 10.08592,-7.87047 v 9.09813 l -10.08592,7.86695 z m -10.60097,-33.81374 10.14589,7.91632 -10.25525,7.99747 -0.0353,0.0282 -10.11061,-7.88811 v -0.0529 z m 0,-35.35187 10.14589,7.91634 -10.25525,8.001 -0.0353,0.0282 -10.11061,-7.89164 v -0.0494 z m 10.43164,-17.68475 10.1459,7.91633 -10.25525,8.00101 -0.0353,0.0247 L 312.92306,6.7281 V 6.6752 Z m 31.30199,-17.677698 10.14587,7.916333 -10.25525,8.001005 -0.0353,0.0282 -10.11061,-7.891643 v -0.04939 z M 364.73556,-1.63628 354.6567,6.23067 v -9.09109 l 10.07886,-7.866941 z m 0.067,16.22779 -0.0353,0.0247 L 354.65665,6.7281 V 6.6752 l 10.25525,-8.001 10.14587,7.91633 z m 10.36462,1.4605 -10.07887,7.86341 v -9.10166 l 10.07887,-7.86342 z m 0.067,16.22425 -0.0353,0.0282 -10.11062,-7.89164 v -0.0494 l 10.25525,-8.00453 10.14589,7.91634 z m 10.3646,1.44991 -10.07885,7.86695 v -9.09109 l 10.07885,-7.86694 z m -10.3646,33.89841 -0.0176,0.0388 -10.12824,-7.90223 v -0.0494 l 10.25524,-8.00099 10.14589,7.91632 z m -20.57754,0.22578 10.07887,-7.86342 v 9.09109 l -10.07887,7.85636 z m -10.72445,17.45192 -0.0353,0.0247 -10.11061,-7.88811 v -0.0529 l 10.25525,-8.001 10.14589,7.91634 z m -20.87034,0 -0.0353,0.0247 L 312.923,77.4424 v -0.06 l 10.2482,-7.99748 10.14588,7.91634 z m -0.06,-16.23131 -10.07886,7.86342 v -9.08403 l 10.07886,-7.86342 z m 0,-35.35538 -10.07886,7.86694 v -9.0805 l 10.07886,-7.86694 z m 10.4387,-17.67064 -10.08592,7.87047 v -9.10166 l 10.08592,-7.87048 z m 20.75039,-9.45445 -10.25173,8.00101 -0.0353,0.0247 -10.1106,-7.88811 V 6.6752 l 10.25526,-8.001 z m 20.97617,44.80984 -10.07887,7.85988 v -9.0946 l 10.07887,-7.86342 z m -20.79626,16.22424 -0.0353,0.0282 -10.11062,-7.88811 v -0.0529 l 10.25526,-8.00099 10.14588,7.91632 z m -20.58458,9.31686 v -9.09108 l 10.08592,-7.87047 v 9.09108 z m -0.17639,-60.58252 10.14589,7.91634 -10.25525,8.001 -0.0353,0.0282 -10.11061,-7.89164 v -0.0494 z m 20.69395,-0.30691 -10.07887,7.86341 v -9.10166 l 10.07887,-7.86342 z m 10.43164,17.66358 -10.07887,7.86694 v -9.0805 l 10.07887,-7.86694 z m 0.067,16.22778 -0.0353,0.0247 -10.11062,-7.88811 v -0.0529 l 10.2482,-7.99394 10.14589,7.91633 z m -20.57753,9.32391 v -9.10166 l 10.07887,-7.86342 v 9.09814 z m -10.72444,8.3573 -0.0353,0.0282 -10.11061,-7.88811 v -0.0529 l 10.25525,-8.00099 10.14589,7.91632 z m -0.06,-16.23129 -10.08592,7.87399 v -9.10166 l 10.08592,-7.87047 z m 10.43164,-17.6777 -10.08592,7.87047 v -9.08403 l 10.08592,-7.87047 z m 10.49866,-1.43933 -0.0353,0.0282 -10.11062,-7.89164 v -0.0494 l 10.25526,-8.00453 10.14588,7.91634 z m -10.43164,17.66711 -0.0353,0.0247 -10.11062,-7.88811 v -0.0529 l 10.2482,-7.99394 10.14236,7.91633 z m -31.01622,-7.86342 v -0.0529 l 10.2482,-7.99394 10.14236,7.91633 -10.24467,7.99395 -0.0353,0.0247 z m 72.9615,17.40605 -10.36461,-8.08566 v -9.36272 l 10.36461,-8.08567 0.067,-0.0529 v -9.53558 l 0.10936,-0.0882 -10.541,-8.22325 V 6.67518 l 0.10936,-0.0847 -10.541,-8.22678 v -9.366248 l 0.10936,-0.08467 -10.71738,-8.360833 -10.54101,8.22325 -0.067,0.05292 V -1.6363 l -10.25878,8.00453 -10.43517,-8.14211 -10.541,8.22325 -0.067,0.0529 v 9.54617 l -10.36461,8.08919 -0.067,0.0529 v 9.70844 l 10.43164,8.14212 v 9.35919 l -10.36461,8.08566 -0.067,0.0529 v 9.71198 l 10.42459,8.13505 v 9.53912 l 10.61861,8.28675 0.1658,-0.14817 10.26231,-8.001 10.43517,8.14211 0.17286,-0.13406 10.37167,-8.09272 0.067,-0.0529 v -9.54264 l 0.0917,-0.0741 10.16352,-7.91986 10.32228,8.05392 0.11995,0.0882 0.0988,-0.0847 10.43163,-8.14212 0.067,-0.0529 v -9.62378 h -0.067 v -0.14111 m -52.19672,17.45906 v -9.09461 l 10.07887,-7.86342 v 9.09461 z m -31.30196,17.6777 v -9.09814 l 10.08591,-7.87047 v 9.09813 z m -20.87034,-9.09814 10.08591,-7.87047 v 9.09813 l -10.08591,7.86695 z m -10.60098,-33.81374 10.14589,7.91632 -10.25524,7.99747 -0.0353,0.0282 -10.11062,-7.88811 v -0.0529 z m 0,-35.35187 10.14589,7.91634 -10.25524,8.001 -0.0353,0.0282 -10.11062,-7.89164 v -0.0494 z m 10.43165,-17.68475 10.14589,7.91633 -10.25525,8.00101 -0.0353,0.0247 L 271.09087,6.7281 V 6.6752 Z m 31.30198,-17.677698 10.14587,7.916333 -10.25524,8.001005 -0.0353,0.0282 -10.11061,-7.891643 v -0.04939 z M 322.90337,-1.63628 312.8245,6.23067 v -9.09109 l 10.07887,-7.866941 z m 0.067,16.22779 -0.0353,0.0247 L 312.82445,6.7281 V 6.6752 l 10.25525,-8.001 10.14588,7.91633 z m 10.36462,1.4605 -10.07887,7.86341 v -9.10166 l 10.07887,-7.86342 z m 0.067,16.22425 -0.0353,0.0282 -10.11062,-7.89164 v -0.0494 l 10.25525,-8.00453 10.14589,7.91634 z m 10.3646,1.44991 -10.07885,7.86695 v -9.09109 l 10.07885,-7.86694 z m -10.3646,33.89841 -0.0176,0.0388 -10.12825,-7.90223 v -0.0494 l 10.25524,-8.00099 10.14589,7.91632 z m -20.57753,0.22578 10.07886,-7.86342 v 9.09109 l -10.07886,7.85636 z m -10.72445,17.45192 -0.0353,0.0247 -10.11061,-7.88811 v -0.0529 l 10.25525,-8.001 10.14589,7.91634 z m -20.87034,0 -0.0353,0.0247 -10.10356,-7.88458 v -0.06 l 10.2482,-7.99748 10.14588,7.91634 z m -0.06,-16.23131 -10.07886,7.86342 v -9.08403 l 10.07886,-7.86342 z m 0,-35.35538 -10.07886,7.86694 v -9.0805 l 10.07886,-7.86694 z m 10.4387,-17.67064 -10.08592,7.87047 v -9.10166 l 10.08592,-7.87048 z m 20.75039,-9.45445 -10.25173,8.00101 -0.0353,0.0247 L 291.96111,6.7281 V 6.6752 l 10.25526,-8.001 z m 20.97617,44.80984 -10.07887,7.85988 v -9.0946 l 10.07887,-7.86342 z m -20.79626,16.22424 -0.0353,0.0282 -10.11062,-7.88811 v -0.0529 l 10.25526,-8.00099 10.14588,7.91632 z m -20.58458,9.31686 v -9.09108 l 10.08592,-7.87047 v 9.09108 z m -0.17639,-60.58252 10.14589,7.91634 -10.25525,8.001 -0.0353,0.0282 -10.11061,-7.89164 v -0.0494 z m 20.69395,-0.30691 -10.07887,7.86341 v -9.10166 l 10.07887,-7.86342 z m 10.43164,17.66358 -10.07887,7.86694 v -9.0805 l 10.07887,-7.86694 z m 0.067,16.22778 -0.0353,0.0247 -10.11062,-7.88811 v -0.0529 l 10.2482,-7.99394 10.14589,7.91633 z m -20.57753,9.32391 v -9.10166 l 10.07887,-7.86342 v 9.09814 z m -10.72444,8.3573 -0.0353,0.0282 -10.11061,-7.88811 v -0.0529 l 10.25525,-8.00099 10.14589,7.91632 z m -0.06,-16.23129 -10.08592,7.87399 v -9.10166 l 10.08592,-7.87047 z m 10.43164,-17.6777 -10.08592,7.87047 v -9.08403 l 10.08592,-7.87047 z m 10.49866,-1.43933 -0.0353,0.0282 -10.11062,-7.89164 v -0.0494 l 10.25526,-8.00453 10.14588,7.91634 z m -10.43164,17.66711 -0.0353,0.0247 -10.11062,-7.88811 v -0.0529 l 10.2482,-7.99394 10.14236,7.91633 z m -31.01622,-7.86342 v -0.0529 l 10.2482,-7.99394 10.14236,7.91633 -10.24467,7.99395 -0.0353,0.0247 z m 72.9615,17.40605 -10.36461,-8.08566 v -9.36272 l 10.36461,-8.08567 0.067,-0.0529 v -9.53558 l 0.10936,-0.0882 -10.541,-8.22325 V 6.67518 l 0.10936,-0.0847 -10.541,-8.22678 v -9.366248 l 0.10936,-0.08467 -10.71738,-8.360833 -10.54101,8.22325 -0.067,0.05292 V -1.6363 l -10.25878,8.00453 -10.43517,-8.14211 -10.541,8.22325 -0.067,0.0529 v 9.54617 l -10.36461,8.08919 -0.067,0.0529 v 9.70844 l 10.43164,8.14212 v 9.35919 l -10.36461,8.08566 -0.067,0.0529 v 9.71198 l 10.42459,8.13505 v 9.53912 l 10.61861,8.28675 0.1658,-0.14817 10.26231,-8.001 10.43517,8.14211 0.17286,-0.13406 10.37167,-8.09272 0.067,-0.0529 v -9.54264 l 0.0917,-0.0741 10.16352,-7.91986 10.32228,8.05392 0.11995,0.0882 0.0988,-0.0847 10.43163,-8.14212 0.067,-0.0529 v -9.62378 h -0.067 v -0.14111 m -72.96146,17.45906 v -9.09461 l 10.07887,-7.86342 v 9.09461 z m -31.30196,17.6777 v -9.09814 l 10.08591,-7.87047 v 9.09813 z m -20.87034,-9.09814 10.08591,-7.87047 v 9.09813 l -10.08591,7.86695 z m -10.60098,-33.81374 10.14589,7.91632 -10.25524,7.99747 -0.0353,0.0282 -10.11062,-7.88811 v -0.0529 z m 0,-35.35187 10.14589,7.91634 -10.25524,8.001 -0.0353,0.0282 -10.11062,-7.89164 v -0.0494 z m 10.43165,-17.68475 10.14589,7.91633 -10.25525,8.00101 -0.0353,0.0247 L 208.49395,6.7281 V 6.6752 Z m 31.30198,-17.677698 10.14587,7.916333 -10.25524,8.001005 -0.0353,0.0282 -10.11061,-7.891643 v -0.04939 z m 10.25525,17.367248 -10.07887,7.86695 v -9.09109 l 10.07887,-7.866941 z m 0.067,16.22779 -0.0353,0.0247 L 250.22753,6.7281 V 6.6752 l 10.25525,-8.001 10.14588,7.91633 z m 10.36462,1.4605 -10.07887,7.86341 v -9.10166 l 10.07887,-7.86342 z m 0.067,16.22425 -0.0353,0.0282 -10.11062,-7.89164 v -0.0494 l 10.25525,-8.00453 10.14589,7.91634 z m 10.3646,1.44991 -10.07885,7.86695 v -9.09109 l 10.07885,-7.86694 z m -10.3646,33.89841 -0.0176,0.0388 -10.12825,-7.90223 v -0.0494 l 10.25524,-8.00099 10.14589,7.91632 z m -20.57753,0.22578 10.07886,-7.86342 v 9.09109 l -10.07886,7.85636 z m -10.72445,17.45192 -0.0353,0.0247 -10.11061,-7.88811 v -0.0529 l 10.25525,-8.001 10.14589,7.91634 z m -20.87034,0 -0.0353,0.0247 -10.10356,-7.88458 v -0.06 l 10.2482,-7.99748 10.14588,7.91634 z m -0.06,-16.23131 -10.07886,7.86342 v -9.08403 l 10.07886,-7.86342 z m 0,-35.35538 -10.07886,7.86694 v -9.0805 l 10.07886,-7.86694 z m 10.4387,-17.67064 -10.08592,7.87047 v -9.10166 l 10.08592,-7.87048 z m 20.75039,-9.45445 -10.25173,8.00101 -0.0353,0.0247 L 229.36419,6.7281 V 6.6752 l 10.25526,-8.001 z m 20.97617,44.80984 -10.07887,7.85988 v -9.0946 l 10.07887,-7.86342 z m -20.79626,16.22424 -0.0353,0.0282 -10.11062,-7.88811 v -0.0529 l 10.25526,-8.00099 10.14588,7.91632 z m -20.58458,9.31686 v -9.09108 l 10.08592,-7.87047 v 9.09108 z m -0.17639,-60.58252 10.14589,7.91634 -10.25525,8.001 -0.0353,0.0282 -10.11061,-7.89164 v -0.0494 z m 20.69395,-0.30691 -10.07887,7.86341 v -9.10166 l 10.07887,-7.86342 z m 10.43164,17.66358 -10.07887,7.86694 v -9.0805 l 10.07887,-7.86694 z m 0.067,16.22778 -0.0353,0.0247 -10.11062,-7.88811 v -0.0529 l 10.2482,-7.99394 10.14589,7.91633 z m -20.57753,9.32391 v -9.10166 l 10.07887,-7.86342 v 9.09814 z m -10.72444,8.3573 -0.0353,0.0282 -10.11061,-7.88811 v -0.0529 l 10.25525,-8.00099 10.14589,7.91632 z m -0.06,-16.23129 -10.08592,7.87399 v -9.10166 l 10.08592,-7.87047 z m 10.43164,-17.6777 -10.08592,7.87047 v -9.08403 l 10.08592,-7.87047 z m 10.49866,-1.43933 -0.0353,0.0282 -10.11062,-7.89164 v -0.0494 l 10.25526,-8.00453 10.14588,7.91634 z m -10.43164,17.66711 -0.0353,0.0247 -10.11062,-7.88811 v -0.0529 l 10.2482,-7.99394 10.14236,7.91633 z m -31.01622,-7.86342 v -0.0529 l 10.2482,-7.99394 10.14236,7.91633 -10.24467,7.99395 -0.0353,0.0247 z m 72.9615,17.40605 -10.36461,-8.08566 v -9.36272 l 10.36461,-8.08567 0.067,-0.0529 v -9.53558 l 0.10936,-0.0882 -10.541,-8.22325 V 6.67518 l 0.10936,-0.0847 -10.541,-8.22678 v -9.366248 l 0.10936,-0.08467 -10.71738,-8.360833 -10.54101,8.22325 -0.067,0.05292 V -1.6363 l -10.25878,8.00453 -10.43517,-8.14211 -10.541,8.22325 -0.067,0.0529 v 9.54617 l -10.36461,8.08919 -0.067,0.0529 v 9.70844 l 10.43164,8.14212 v 9.35919 l -10.36461,8.08566 -0.067,0.0529 v 9.71198 l 10.42459,8.13505 v 9.53912 l 10.61861,8.28675 0.1658,-0.14817 10.26231,-8.001 10.43517,8.14211 0.17286,-0.13406 10.37167,-8.09272 0.067,-0.0529 v -9.54264 l 0.0917,-0.0741 10.16352,-7.91986 10.32228,8.05392 0.11995,0.0882 0.0988,-0.0847 10.43163,-8.14212 0.067,-0.0529 v -9.62378 h -0.067 v -0.14111 m -10.36454,17.45906 v -9.09461 l 10.07887,-7.86342 v 9.09461 z m -31.30196,17.6777 v -9.09814 l 10.08591,-7.87047 v 9.09813 z m -20.87034,-9.09814 10.08591,-7.87047 v 9.09813 l -10.08591,7.86695 z m -10.60098,-33.81374 10.14589,7.91632 -10.25524,7.99747 -0.0353,0.0282 -10.11062,-7.88811 v -0.0529 z m 0,-35.35187 10.14589,7.91634 -10.25524,8.001 -0.0353,0.0282 -10.11062,-7.89164 v -0.0494 z m 10.43165,-17.68475 10.14589,7.91633 -10.25525,8.00101 -0.0353,0.0247 L 208.49395,6.7281 V 6.6752 Z m 31.30198,-17.677698 10.14587,7.916333 -10.25524,8.001005 -0.0353,0.0282 -10.11061,-7.891643 v -0.04939 z m 10.25525,17.367248 -10.07887,7.86695 v -9.09109 l 10.07887,-7.866941 z m 0.067,16.22779 -0.0353,0.0247 L 250.22753,6.7281 V 6.6752 l 10.25525,-8.001 10.14588,7.91633 z m 10.36462,1.4605 -10.07887,7.86341 v -9.10166 l 10.07887,-7.86342 z m 0.067,16.22425 -0.0353,0.0282 -10.11062,-7.89164 v -0.0494 l 10.25525,-8.00453 10.14589,7.91634 z m 10.3646,1.44991 -10.07885,7.86695 v -9.09109 l 10.07885,-7.86694 z m -10.3646,33.89841 -0.0176,0.0388 -10.12825,-7.90223 v -0.0494 l 10.25524,-8.00099 10.14589,7.91632 z m -20.57753,0.22578 10.07886,-7.86342 v 9.09109 l -10.07886,7.85636 z m -10.72445,17.45192 -0.0353,0.0247 -10.11061,-7.88811 v -0.0529 l 10.25525,-8.001 10.14589,7.91634 z m -20.87034,0 -0.0353,0.0247 -10.10356,-7.88458 v -0.06 l 10.2482,-7.99748 10.14588,7.91634 z m -0.06,-16.23131 -10.07886,7.86342 v -9.08403 l 10.07886,-7.86342 z m 0,-35.35538 -10.07886,7.86694 v -9.0805 l 10.07886,-7.86694 z m 10.4387,-17.67064 -10.08592,7.87047 v -9.10166 l 10.08592,-7.87048 z m 20.75039,-9.45445 -10.25173,8.00101 -0.0353,0.0247 L 229.36419,6.7281 V 6.6752 l 10.25526,-8.001 z m 20.97617,44.80984 -10.07887,7.85988 v -9.0946 l 10.07887,-7.86342 z m -20.79626,16.22424 -0.0353,0.0282 -10.11062,-7.88811 v -0.0529 l 10.25526,-8.00099 10.14588,7.91632 z m -20.58458,9.31686 v -9.09108 l 10.08592,-7.87047 v 9.09108 z m -0.17639,-60.58252 10.14589,7.91634 -10.25525,8.001 -0.0353,0.0282 -10.11061,-7.89164 v -0.0494 z m 20.69395,-0.30691 -10.07887,7.86341 v -9.10166 l 10.07887,-7.86342 z m 10.43164,17.66358 -10.07887,7.86694 v -9.0805 l 10.07887,-7.86694 z m 0.067,16.22778 -0.0353,0.0247 -10.11062,-7.88811 v -0.0529 l 10.2482,-7.99394 10.14589,7.91633 z m -20.57753,9.32391 v -9.10166 l 10.07887,-7.86342 v 9.09814 z m -10.72444,8.3573 -0.0353,0.0282 -10.11061,-7.88811 v -0.0529 l 10.25525,-8.00099 10.14589,7.91632 z m -0.06,-16.23129 -10.08592,7.87399 v -9.10166 l 10.08592,-7.87047 z m 10.43164,-17.6777 -10.08592,7.87047 v -9.08403 l 10.08592,-7.87047 z m 10.49866,-1.43933 -0.0353,0.0282 -10.11062,-7.89164 v -0.0494 l 10.25526,-8.00453 10.14588,7.91634 z m -10.43164,17.66711 -0.0353,0.0247 -10.11062,-7.88811 v -0.0529 l 10.2482,-7.99394 10.14236,7.91633 z m -31.01622,-7.86342 v -0.0529 l 10.2482,-7.99394 10.14236,7.91633 -10.24467,7.99395 -0.0353,0.0247 z m 72.9615,17.40605 -10.36461,-8.08566 v -9.36272 l 10.36461,-8.08567 0.067,-0.0529 v -9.53558 l 0.10936,-0.0882 -10.541,-8.22325 V 6.67518 l 0.10936,-0.0847 -10.541,-8.22678 v -9.366248 l 0.10936,-0.08467 -10.71738,-8.360833 -10.54101,8.22325 -0.067,0.05292 V -1.6363 l -10.25878,8.00453 -10.43517,-8.14211 -10.541,8.22325 -0.067,0.0529 v 9.54617 l -10.36461,8.08919 -0.067,0.0529 v 9.70844 l 10.43164,8.14212 v 9.35919 l -10.36461,8.08566 -0.067,0.0529 v 9.71198 l 10.42459,8.13505 v 9.53912 l 10.61861,8.28675 0.1658,-0.14817 10.26231,-8.001 10.43517,8.14211 0.17286,-0.13406 10.37167,-8.09272 0.067,-0.0529 v -9.54264 l 0.0917,-0.0741 10.16352,-7.91986 10.32228,8.05392 0.11995,0.0882 0.0988,-0.0847 10.43163,-8.14212 0.067,-0.0529 v -9.62378 h -0.067 v -0.14111 m 240.22042,123.37335 v -9.09461 l 10.07887,-7.86342 v 9.09461 z m -31.30196,17.6777 v -9.09814 l 10.08591,-7.87047 v 9.09813 z m -20.87034,-9.09814 10.08591,-7.87047 v 9.09813 l -10.08591,7.86695 z m -10.60098,-33.81374 10.14589,7.91632 -10.25524,7.99747 -0.0353,0.0282 -10.11062,-7.88811 v -0.0529 z m 0,-35.35187 10.14589,7.91634 -10.25524,8.001 -0.0353,0.0282 -10.11062,-7.89164 v -0.0494 z m 10.43165,-17.68475 10.14589,7.91633 -10.25525,8.00101 -0.0353,0.0247 -10.11061,-7.88811 v -0.0529 z m 31.30198,-17.677698 10.14587,7.916333 -10.25524,8.001005 -0.0353,0.0282 -10.11061,-7.891643 v -0.04939 z m 10.25525,17.367248 -10.07887,7.86695 v -9.09109 l 10.07887,-7.866941 z m 0.067,16.22779 -0.0353,0.0247 -10.11062,-7.88811 v -0.0529 l 10.25525,-8.001 10.14588,7.91633 z m 10.36462,1.4605 -10.07887,7.86341 v -9.10166 l 10.07887,-7.86342 z m 0.067,16.22425 -0.0353,0.0282 -10.11062,-7.89164 v -0.0494 l 10.25525,-8.00453 10.14589,7.91634 z m 10.3646,1.44991 -10.07885,7.86695 v -9.09109 l 10.07885,-7.86694 z m -10.3646,33.89841 -0.0176,0.0388 -10.12825,-7.90223 v -0.0494 l 10.25524,-8.00099 10.14589,7.91632 z m -20.57753,0.22578 10.07886,-7.86342 v 9.09109 l -10.07886,7.85636 z m -10.72445,17.45192 -0.0353,0.0247 -10.11061,-7.88811 v -0.0529 l 10.25525,-8.001 10.14589,7.91634 z m -20.87034,0 -0.0353,0.0247 -10.10356,-7.88458 v -0.06 l 10.2482,-7.99748 10.14588,7.91634 z m -0.06,-16.23131 -10.07886,7.86342 v -9.08403 l 10.07886,-7.86342 z m 0,-35.35538 -10.07886,7.86694 v -9.0805 l 10.07886,-7.86694 z m 10.4387,-17.67064 -10.08592,7.87047 v -9.10166 l 10.08592,-7.87048 z m 20.75039,-9.45445 -10.25173,8.00101 -0.0353,0.0247 -10.11062,-7.88811 v -0.0529 l 10.25526,-8.001 z m 20.97617,44.80984 -10.07887,7.85988 v -9.0946 l 10.07887,-7.86342 z m -20.79626,16.22424 -0.0353,0.0282 -10.11062,-7.88811 v -0.0529 l 10.25526,-8.00099 10.14588,7.91632 z m -20.58458,9.31686 v -9.09108 l 10.08592,-7.87047 v 9.09108 z m -0.17639,-60.58252 10.14589,7.91634 -10.25525,8.001 -0.0353,0.0282 -10.11061,-7.89164 v -0.0494 z m 20.69395,-0.30691 -10.07887,7.86341 v -9.10166 l 10.07887,-7.86342 z m 10.43164,17.66358 -10.07887,7.86694 v -9.0805 l 10.07887,-7.86694 z m 0.067,16.22778 -0.0353,0.0247 -10.11062,-7.88811 v -0.0529 l 10.2482,-7.99394 10.14589,7.91633 z m -20.57753,9.32391 v -9.10166 l 10.07887,-7.86342 v 9.09814 z m -10.72444,8.3573 -0.0353,0.0282 -10.11061,-7.88811 v -0.0529 l 10.25525,-8.00099 10.14589,7.91632 z m -0.06,-16.23129 -10.08592,7.87399 v -9.10166 l 10.08592,-7.87047 z m 10.43164,-17.6777 -10.08592,7.87047 v -9.08403 l 10.08592,-7.87047 z m 10.49866,-1.43933 -0.0353,0.0282 -10.11062,-7.89164 v -0.0494 l 10.25526,-8.00453 10.14588,7.91634 z m -10.43164,17.66711 -0.0353,0.0247 -10.11062,-7.88811 v -0.0529 l 10.2482,-7.99394 10.14236,7.91633 z m -31.01622,-7.86342 v -0.0529 l 10.2482,-7.99394 10.14236,7.91633 -10.24467,7.99395 -0.0353,0.0247 z m 72.9615,17.40605 -10.36461,-8.08566 v -9.36272 l 10.36461,-8.08567 0.067,-0.0529 v -9.53558 l 0.10936,-0.0882 -10.541,-8.22325 v -9.37684 l 0.10936,-0.0847 -10.541,-8.22678 v -9.366248 l 0.10936,-0.08467 -10.71738,-8.360833 -10.54101,8.22325 -0.067,0.05292 v 9.535581 l -10.25878,8.00453 -10.43517,-8.14211 -10.541,8.22325 -0.067,0.0529 v 9.54617 l -10.36461,8.08919 -0.067,0.0529 v 9.70844 l 10.43164,8.14212 v 9.35919 l -10.36461,8.08566 -0.067,0.0529 v 9.71198 l 10.42459,8.13505 v 9.53912 l 10.61861,8.28675 0.1658,-0.14817 10.26231,-8.001 10.43517,8.14211 0.17286,-0.13406 10.37167,-8.09272 0.067,-0.0529 v -9.54264 l 0.0917,-0.0741 10.16352,-7.91986 10.32228,8.05392 0.11995,0.0882 0.0988,-0.0847 10.43163,-8.14212 0.067,-0.0529 v -9.62378 h -0.067 v -0.14111 m -52.09818,17.45906 v -9.09461 l 10.07886,-7.86342 v 9.09461 z m -31.30197,17.6777 v -9.09814 l 10.08592,-7.87047 v 9.09813 z m -20.87034,-9.09814 10.08592,-7.87047 v 9.09813 l -10.08592,7.86695 z m -10.60097,-33.81374 10.14589,7.91632 -10.25525,7.99747 -0.0353,0.0282 -10.11061,-7.88811 v -0.0529 z m 0,-35.35187 10.14589,7.91634 -10.25525,8.001 -0.0353,0.0282 -10.11061,-7.89164 v -0.0494 z m 10.43164,-17.68475 10.14589,7.91633 -10.25525,8.00101 -0.0353,0.0247 -10.11061,-7.88811 v -0.0529 z m 31.30198,-17.677698 10.14588,7.916333 -10.25525,8.001005 -0.0353,0.0282 -10.11062,-7.891643 v -0.04939 z m 10.25525,17.367248 -10.07887,7.86695 v -9.09109 l 10.07887,-7.866941 z m 0.067,16.22779 -0.0353,0.0247 -10.11062,-7.88811 v -0.0529 l 10.25525,-8.001 10.14589,7.91633 z m 10.36462,1.4605 -10.07887,7.86341 v -9.10166 l 10.07887,-7.86342 z m 0.067,16.22425 -0.0353,0.0282 -10.11062,-7.89164 v -0.0494 l 10.25525,-8.00453 10.14589,7.91634 z m 10.36461,1.44991 -10.07886,7.86695 v -9.09109 l 10.07886,-7.86694 z m -10.36461,33.89841 -0.0176,0.0388 -10.12825,-7.90223 v -0.0494 l 10.25525,-8.00099 10.14589,7.91632 z m -20.57753,0.22578 10.07887,-7.86342 v 9.09109 l -10.07887,7.85636 z m -10.72444,17.45192 -0.0353,0.0247 -10.11061,-7.88811 v -0.0529 l 10.25525,-8.001 10.14589,7.91634 z m -20.87034,0 -0.0353,0.0247 -10.10356,-7.88458 v -0.06 l 10.2482,-7.99748 10.14588,7.91634 z m -0.06,-16.23131 -10.07886,7.86342 v -9.08403 l 10.07886,-7.86342 z m 0,-35.35538 -10.07886,7.86694 v -9.0805 l 10.07886,-7.86694 z m 10.4387,-17.67064 -10.08592,7.87047 v -9.10166 l 10.08592,-7.87048 z m 20.75039,-9.45445 -10.25173,8.00101 -0.0353,0.0247 -10.11062,-7.88811 v -0.0529 l 10.25526,-8.001 z m 20.97617,44.80984 -10.07887,7.85988 v -9.0946 l 10.07887,-7.86342 z m -20.79626,16.22424 -0.0353,0.0282 -10.11062,-7.88811 v -0.0529 l 10.25526,-8.00099 10.14588,7.91632 z m -20.58458,9.31686 v -9.09108 l 10.08592,-7.87047 v 9.09108 z m -0.17639,-60.58252 10.14589,7.91634 -10.25525,8.001 -0.0353,0.0282 -10.11061,-7.89164 v -0.0494 z m 20.69395,-0.30691 -10.07887,7.86341 v -9.10166 l 10.07887,-7.86342 z m 10.43164,17.66358 -10.07887,7.86694 v -9.0805 l 10.07887,-7.86694 z m 0.067,16.22778 -0.0353,0.0247 -10.11062,-7.88811 v -0.0529 l 10.2482,-7.99394 10.14589,7.91633 z m -20.57753,9.32391 v -9.10166 l 10.07887,-7.86342 v 9.09814 z m -10.72444,8.3573 -0.0353,0.0282 -10.11061,-7.88811 v -0.0529 l 10.25525,-8.00099 10.14589,7.91632 z m -0.06,-16.23129 -10.08592,7.87399 v -9.10166 l 10.08592,-7.87047 z m 10.43164,-17.6777 -10.08592,7.87047 v -9.08403 l 10.08592,-7.87047 z m 10.49866,-1.43933 -0.0353,0.0282 -10.11062,-7.89164 v -0.0494 l 10.25526,-8.00453 10.14588,7.91634 z m -10.43164,17.66711 -0.0353,0.0247 -10.11062,-7.88811 v -0.0529 l 10.2482,-7.99394 10.14236,7.91633 z m -31.01622,-7.86342 v -0.0529 l 10.2482,-7.99394 10.14236,7.91633 -10.24467,7.99395 -0.0353,0.0247 z m 72.9615,17.40605 -10.36461,-8.08566 v -9.36272 l 10.36461,-8.08567 0.067,-0.0529 v -9.53558 l 0.10936,-0.0882 -10.541,-8.22325 v -9.37684 l 0.10936,-0.0847 -10.541,-8.22678 v -9.366248 l 0.10936,-0.08467 -10.71738,-8.360833 -10.54101,8.22325 -0.067,0.05292 v 9.535581 l -10.25878,8.00453 -10.43517,-8.14211 -10.541,8.22325 -0.067,0.0529 v 9.54617 l -10.36461,8.08919 -0.067,0.0529 v 9.70844 l 10.43164,8.14212 v 9.35919 l -10.36461,8.08566 -0.067,0.0529 v 9.71198 l 10.42459,8.13505 v 9.53912 l 10.61861,8.28675 0.1658,-0.14817 10.26231,-8.001 10.43517,8.14211 0.17286,-0.13406 10.37167,-8.09272 0.067,-0.0529 v -9.54264 l 0.0917,-0.0741 10.16352,-7.91986 10.32228,8.05392 0.11995,0.0882 0.0988,-0.0847 10.43163,-8.14212 0.067,-0.0529 v -9.62378 h -0.067 v -0.14111 m -52.09818,17.45906 v -9.09461 l 10.07886,-7.86342 v 9.09461 z m -31.30197,17.6777 v -9.09814 l 10.08592,-7.87047 v 9.09813 z m -20.87034,-9.09814 10.08592,-7.87047 v 9.09813 l -10.08592,7.86695 z m -10.60097,-33.81374 10.14589,7.91632 -10.25525,7.99747 -0.0353,0.0282 -10.11061,-7.88811 v -0.0529 z m 0,-35.35187 10.14589,7.91634 -10.25525,8.001 -0.0353,0.0282 -10.11061,-7.89164 v -0.0494 z m 10.43164,-17.68475 10.14589,7.91633 -10.25525,8.00101 -0.0353,0.0247 -10.11061,-7.88811 v -0.0529 z m 31.30198,-17.677698 10.14588,7.916333 -10.25525,8.001005 -0.0353,0.0282 -10.11062,-7.891643 v -0.04939 z m 10.25525,17.367248 -10.07887,7.86695 v -9.09109 l 10.07887,-7.866941 z m 0.067,16.22779 -0.0353,0.0247 -10.11062,-7.88811 v -0.0529 l 10.25525,-8.001 10.14589,7.91633 z m 10.36462,1.4605 -10.07887,7.86341 v -9.10166 l 10.07887,-7.86342 z m 0.067,16.22425 -0.0353,0.0282 -10.11062,-7.89164 v -0.0494 l 10.25525,-8.00453 10.14589,7.91634 z m 10.36461,1.44991 -10.07886,7.86695 v -9.09109 l 10.07886,-7.86694 z m -10.36461,33.89841 -0.0176,0.0388 -10.12825,-7.90223 v -0.0494 l 10.25525,-8.00099 10.14589,7.91632 z m -20.57753,0.22578 10.07887,-7.86342 v 9.09109 l -10.07887,7.85636 z m -10.72444,17.45192 -0.0353,0.0247 -10.11061,-7.88811 v -0.0529 l 10.25525,-8.001 10.14589,7.91634 z m -20.87034,0 -0.0353,0.0247 -10.10356,-7.88458 v -0.06 l 10.2482,-7.99748 10.14588,7.91634 z m -0.06,-16.23131 -10.07886,7.86342 v -9.08403 l 10.07886,-7.86342 z m 0,-35.35538 -10.07886,7.86694 v -9.0805 l 10.07886,-7.86694 z m 10.4387,-17.67064 -10.08592,7.87047 v -9.10166 l 10.08592,-7.87048 z m 20.75039,-9.45445 -10.25173,8.00101 -0.0353,0.0247 -10.11062,-7.88811 v -0.0529 l 10.25526,-8.001 z m 20.97617,44.80984 -10.07887,7.85988 v -9.0946 l 10.07887,-7.86342 z m -20.79626,16.22424 -0.0353,0.0282 -10.11062,-7.88811 v -0.0529 l 10.25526,-8.00099 10.14588,7.91632 z m -20.58458,9.31686 v -9.09108 l 10.08592,-7.87047 v 9.09108 z m -0.17639,-60.58252 10.14589,7.91634 -10.25525,8.001 -0.0353,0.0282 -10.11061,-7.89164 v -0.0494 z m 20.69395,-0.30691 -10.07887,7.86341 v -9.10166 l 10.07887,-7.86342 z m 10.43164,17.66358 -10.07887,7.86694 v -9.0805 l 10.07887,-7.86694 z m 0.067,16.22778 -0.0353,0.0247 -10.11062,-7.88811 v -0.0529 l 10.2482,-7.99394 10.14589,7.91633 z m -20.57753,9.32391 v -9.10166 l 10.07887,-7.86342 v 9.09814 z m -10.72444,8.3573 -0.0353,0.0282 -10.11061,-7.88811 v -0.0529 l 10.25525,-8.00099 10.14589,7.91632 z m -0.06,-16.23129 -10.08592,7.87399 v -9.10166 l 10.08592,-7.87047 z m 10.43164,-17.6777 -10.08592,7.87047 v -9.08403 l 10.08592,-7.87047 z m 10.49866,-1.43933 -0.0353,0.0282 -10.11062,-7.89164 v -0.0494 l 10.25526,-8.00453 10.14588,7.91634 z m -10.43164,17.66711 -0.0353,0.0247 -10.11062,-7.88811 v -0.0529 l 10.2482,-7.99394 10.14236,7.91633 z m -31.01622,-7.86342 v -0.0529 l 10.2482,-7.99394 10.14236,7.91633 -10.24467,7.99395 -0.0353,0.0247 z m 72.9615,17.40605 -10.36461,-8.08566 v -9.36272 l 10.36461,-8.08567 0.067,-0.0529 v -9.53558 l 0.10936,-0.0882 -10.541,-8.22325 v -9.37684 l 0.10936,-0.0847 -10.541,-8.22678 v -9.366248 l 0.10936,-0.08467 -10.71738,-8.360833 -10.54101,8.22325 -0.067,0.05292 v 9.535581 l -10.25878,8.00453 -10.43517,-8.14211 -10.541,8.22325 -0.067,0.0529 v 9.54617 l -10.36461,8.08919 -0.067,0.0529 v 9.70844 l 10.43164,8.14212 v 9.35919 l -10.36461,8.08566 -0.067,0.0529 v 9.71198 l 10.42459,8.13505 v 9.53912 l 10.61861,8.28675 0.1658,-0.14817 10.26231,-8.001 10.43517,8.14211 0.17286,-0.13406 10.37167,-8.09272 0.067,-0.0529 v -9.54264 l 0.0917,-0.0741 10.16352,-7.91986 10.32228,8.05392 0.11995,0.0882 0.0988,-0.0847 10.43163,-8.14212 0.067,-0.0529 v -9.62378 h -0.067 v -0.14111 m -83.41418,-0.20442 v -9.09461 l 10.07886,-7.86342 v 9.09461 z m -31.30197,17.6777 v -9.09814 l 10.08592,-7.87047 v 9.09813 z m -20.87034,-9.09814 10.08592,-7.87047 v 9.09813 l -10.08592,7.86695 z m -10.60097,-33.81374 10.14589,7.91632 -10.25525,7.99747 -0.0353,0.0282 -10.11061,-7.88811 v -0.0529 z m 0,-35.35187 10.14589,7.91634 -10.25525,8.001 -0.0353,0.0282 -10.11061,-7.89164 v -0.0494 z m 10.43164,-17.684753 10.14589,7.916329 -10.25525,8.001014 -0.0353,0.0247 -10.11061,-7.888114 v -0.0529 z m 31.30198,-17.677695 10.14588,7.916333 -10.25525,8.001001 -0.0353,0.02822 -10.11062,-7.891639 v -0.04939 z m 10.25525,17.367251 -10.07887,7.866943 v -9.091082 l 10.07887,-7.866945 z m 0.067,16.227787 -0.0353,0.0247 -10.11062,-7.888114 v -0.0529 l 10.25525,-8.000999 10.14589,7.916329 z m 10.36462,1.4605 -10.07887,7.86341 v -9.10166 l 10.07887,-7.863424 z m 0.067,16.22425 -0.0353,0.0282 -10.11062,-7.89164 v -0.0494 l 10.25525,-8.00453 10.14589,7.91634 z m 10.36461,1.44991 -10.07886,7.86695 v -9.09109 l 10.07886,-7.86694 z m -10.36461,33.89841 -0.0176,0.0388 -10.12825,-7.90223 v -0.0494 l 10.25525,-8.00099 10.14589,7.91632 z m -20.57753,0.22578 10.07887,-7.86342 v 9.09109 l -10.07887,7.85636 z m -10.72444,17.45192 -0.0353,0.0247 -10.11061,-7.88811 v -0.0529 l 10.25525,-8.001 10.14589,7.91634 z m -20.87034,0 -0.0353,0.0247 -10.10356,-7.88458 v -0.06 l 10.2482,-7.99748 10.14588,7.91634 z m -0.06,-16.23131 -10.07886,7.86342 v -9.08403 l 10.07886,-7.86342 z m 0,-35.35538 -10.07886,7.86694 v -9.0805 l 10.07886,-7.86694 z m 10.4387,-17.67064 -10.08592,7.87047 v -9.10166 l 10.08592,-7.870484 z m 20.75039,-9.454454 -10.25173,8.001014 -0.0353,0.0247 -10.11062,-7.888114 v -0.0529 l 10.25526,-8.000999 z m 20.97617,44.809844 -10.07887,7.85988 v -9.0946 l 10.07887,-7.86342 z m -20.79626,16.22424 -0.0353,0.0282 -10.11062,-7.88811 v -0.0529 l 10.25526,-8.00099 10.14588,7.91632 z m -20.58458,9.31686 v -9.09108 l 10.08592,-7.87047 v 9.09108 z m -0.17639,-60.58252 10.14589,7.91634 -10.25525,8.001 -0.0353,0.0282 -10.11061,-7.89164 v -0.0494 z m 20.69395,-0.30691 -10.07887,7.86341 v -9.10166 l 10.07887,-7.863424 z m 10.43164,17.66358 -10.07887,7.86694 v -9.0805 l 10.07887,-7.86694 z m 0.067,16.22778 -0.0353,0.0247 -10.11062,-7.88811 v -0.0529 l 10.2482,-7.99394 10.14589,7.91633 z m -20.57753,9.32391 v -9.10166 l 10.07887,-7.86342 v 9.09814 z m -10.72444,8.3573 -0.0353,0.0282 -10.11061,-7.88811 v -0.0529 l 10.25525,-8.00099 10.14589,7.91632 z m -0.06,-16.23129 -10.08592,7.87399 v -9.10166 l 10.08592,-7.87047 z m 10.43164,-17.6777 -10.08592,7.87047 v -9.08403 l 10.08592,-7.87047 z m 10.49866,-1.43933 -0.0353,0.0282 -10.11062,-7.89164 v -0.0494 l 10.25526,-8.00453 10.14588,7.91634 z m -10.43164,17.66711 -0.0353,0.0247 -10.11062,-7.88811 v -0.0529 l 10.2482,-7.99394 10.14236,7.91633 z m -31.01622,-7.86342 v -0.0529 l 10.2482,-7.99394 10.14236,7.91633 -10.24467,7.99395 -0.0353,0.0247 z m 72.9615,17.40605 -10.36461,-8.08566 v -9.36272 l 10.36461,-8.08567 0.067,-0.0529 v -9.53558 l 0.10936,-0.0882 -10.541,-8.22325 v -9.376844 l 0.10936,-0.0847 -10.541,-8.226773 v -9.366251 l 0.10936,-0.08467 -10.71738,-8.360833 -10.54101,8.22325 -0.067,0.05292 v 9.535584 l -10.25878,8.004523 -10.43517,-8.142107 -10.541,8.223247 -0.067,0.0529 v 9.546174 l -10.36461,8.08919 -0.067,0.0529 v 9.70844 l 10.43164,8.14212 v 9.35919 l -10.36461,8.08566 -0.067,0.0529 v 9.71198 l 10.42459,8.13505 v 9.53912 l 10.61861,8.28675 0.1658,-0.14817 10.26231,-8.001 10.43517,8.14211 0.17286,-0.13406 10.37167,-8.09272 0.067,-0.0529 v -9.54264 l 0.0917,-0.0741 10.16352,-7.91986 10.32228,8.05392 0.11995,0.0882 0.0988,-0.0847 10.43163,-8.14212 0.067,-0.0529 v -9.62378 h -0.067 v -0.14111 m -83.56936,-0.081 v -9.09461 l 10.07886,-7.86342 v 9.09461 z m -31.30197,17.6777 v -9.09814 l 10.08592,-7.87047 v 9.09813 z m -20.87034,-9.09814 10.08592,-7.87047 v 9.09813 l -10.08592,7.86695 z m -10.60097,-33.81374 10.14589,7.91632 -10.25525,7.99747 -0.0353,0.0282 -10.11061,-7.88811 v -0.0529 z m 0,-35.351874 10.14589,7.91634 -10.25525,8.001004 -0.0353,0.0282 -10.11061,-7.891644 v -0.0494 z m 10.43164,-17.684749 10.14589,7.916329 -10.25525,8.00101 -0.0353,0.0247 -10.11061,-7.88811 v -0.0529 z m 31.30198,-17.677695 10.14588,7.916333 -10.25525,8.001001 -0.0353,0.02822 -10.11062,-7.891639 v -0.04939 z m 10.25525,17.367251 -10.07887,7.866943 v -9.091082 l 10.07887,-7.866945 z m 0.067,16.227783 -0.0353,0.0247 -10.11062,-7.88811 v -0.0529 l 10.25525,-8.000999 10.14589,7.916329 z m 10.36462,1.4605 -10.07887,7.86341 v -9.10166 l 10.07887,-7.86342 z m 0.067,16.224254 -0.0353,0.0282 -10.11062,-7.891644 v -0.0494 l 10.25525,-8.00453 10.14589,7.91634 z m 10.36461,1.44991 -10.07886,7.86695 v -9.09109 l 10.07886,-7.866944 z m -10.36461,33.89841 -0.0176,0.0388 -10.12825,-7.90223 v -0.0494 l 10.25525,-8.00099 10.14589,7.91632 z m -20.57753,0.22578 10.07887,-7.86342 v 9.09109 l -10.07887,7.85636 z m -10.72444,17.45192 -0.0353,0.0247 -10.11061,-7.88811 v -0.0529 l 10.25525,-8.001 10.14589,7.91634 z m -20.87034,0 -0.0353,0.0247 -10.10356,-7.88458 v -0.06 l 10.2482,-7.99748 10.14588,7.91634 z m -0.06,-16.23131 -10.07886,7.86342 v -9.08403 l 10.07886,-7.86342 z m 0,-35.35538 -10.07886,7.86694 v -9.0805 l 10.07886,-7.866944 z m 10.4387,-17.670644 -10.08592,7.87047 v -9.10166 l 10.08592,-7.87048 z m 20.75039,-9.45445 -10.25173,8.00101 -0.0353,0.0247 -10.11062,-7.88811 v -0.0529 l 10.25526,-8.000999 z m 20.97617,44.809844 -10.07887,7.85988 v -9.0946 l 10.07887,-7.86342 z m -20.79626,16.22424 -0.0353,0.0282 -10.11062,-7.88811 v -0.0529 l 10.25526,-8.00099 10.14588,7.91632 z m -20.58458,9.31686 v -9.09108 l 10.08592,-7.87047 v 9.09108 z m -0.17639,-60.582524 10.14589,7.91634 -10.25525,8.001004 -0.0353,0.0282 -10.11061,-7.891644 v -0.0494 z m 20.69395,-0.30691 -10.07887,7.86341 v -9.10166 l 10.07887,-7.86342 z m 10.43164,17.663584 -10.07887,7.86694 v -9.0805 l 10.07887,-7.866944 z m 0.067,16.22778 -0.0353,0.0247 -10.11062,-7.88811 v -0.0529 l 10.2482,-7.99394 10.14589,7.91633 z m -20.57753,9.32391 v -9.10166 l 10.07887,-7.86342 v 9.09814 z m -10.72444,8.3573 -0.0353,0.0282 -10.11061,-7.88811 v -0.0529 l 10.25525,-8.00099 10.14589,7.91632 z m -0.06,-16.23129 -10.08592,7.87399 v -9.10166 l 10.08592,-7.87047 z m 10.43164,-17.6777 -10.08592,7.87047 v -9.08403 l 10.08592,-7.870474 z m 10.49866,-1.43933 -0.0353,0.0282 -10.11062,-7.891644 v -0.0494 l 10.25526,-8.00453 10.14588,7.91634 z m -10.43164,17.66711 -0.0353,0.0247 -10.11062,-7.88811 v -0.0529 l 10.2482,-7.99394 10.14236,7.91633 z m -31.01622,-7.86342 v -0.0529 l 10.2482,-7.99394 10.14236,7.91633 -10.24467,7.99395 -0.0353,0.0247 z m 72.9615,17.40605 -10.36461,-8.08566 v -9.36272 l 10.36461,-8.08567 0.067,-0.0529 v -9.535584 l 0.10936,-0.0882 -10.541,-8.22325 v -9.37684 l 0.10936,-0.0847 -10.541,-8.226773 v -9.366251 l 0.10936,-0.08467 -10.71738,-8.360833 -10.54101,8.22325 -0.067,0.05292 v 9.535584 l -10.25878,8.004523 -10.43517,-8.142107 -10.541,8.223247 -0.067,0.0529 v 9.54617 l -10.36461,8.08919 -0.067,0.0529 v 9.708444 l 10.43164,8.14212 v 9.35919 l -10.36461,8.08566 -0.067,0.0529 v 9.71198 l 10.42459,8.13505 v 9.53912 l 10.61861,8.28675 0.1658,-0.14817 10.26231,-8.001 10.43517,8.14211 0.17286,-0.13406 10.37167,-8.09272 0.067,-0.0529 v -9.54264 l 0.0917,-0.0741 10.16352,-7.91986 10.32228,8.05392 0.11995,0.0882 0.0988,-0.0847 10.43163,-8.14212 0.067,-0.0529 v -9.62378 h -0.067 v -0.14111 m -93.93044,-17.77279 v -9.09461 l 10.07886,-7.863422 v 9.094612 z m -31.30197,17.6777 v -9.09814 l 10.08592,-7.87047 v 9.09813 z m -20.87034,-9.09814 10.08592,-7.87047 v 9.09813 l -10.08592,7.86695 z m -10.60097,-33.813747 10.14589,7.916325 -10.25525,7.997472 -0.0353,0.0282 -10.11061,-7.888112 v -0.0529 z m 0,-35.35187 10.14589,7.91634 -10.25525,8.001 -0.0353,0.0282 -10.11061,-7.89164 v -0.0494 z m 10.43164,-17.684749 10.14589,7.916329 -10.25525,8.00101 -0.0353,0.0247 -10.11061,-7.88811 v -0.0529 z m 31.30198,-17.677695 10.14588,7.916333 -10.25525,8.001001 -0.0353,0.02822 -10.11062,-7.891639 v -0.04939 z m 10.25525,17.367251 -10.07887,7.866943 v -9.091082 l 10.07887,-7.866945 z m 0.067,16.227783 -0.0353,0.0247 -10.11062,-7.88811 v -0.0529 l 10.25525,-8.000999 10.14589,7.916329 z m 10.36462,1.4605 -10.07887,7.86341 v -9.10166 l 10.07887,-7.86342 z m 0.067,16.22425 -0.0353,0.0282 -10.11062,-7.89164 v -0.0494 l 10.25525,-8.00453 10.14589,7.91634 z m 10.36461,1.44991 -10.07886,7.86695 v -9.09109 l 10.07886,-7.86694 z m -10.36461,33.898417 -0.0176,0.0388 -10.12825,-7.902232 v -0.0494 l 10.25525,-8.000995 10.14589,7.916325 z m -20.57753,0.22578 10.07887,-7.863422 v 9.091092 l -10.07887,7.85636 z m -10.72444,17.45192 -0.0353,0.0247 -10.11061,-7.88811 v -0.0529 l 10.25525,-8.001 10.14589,7.91634 z m -20.87034,0 -0.0353,0.0247 -10.10356,-7.88458 v -0.06 l 10.2482,-7.99748 10.14588,7.91634 z m -0.06,-16.23131 -10.07886,7.86342 v -9.08403 l 10.07886,-7.863422 z m 0,-35.355387 -10.07886,7.86694 v -9.0805 l 10.07886,-7.86694 z m 10.4387,-17.67064 -10.08592,7.87047 v -9.10166 l 10.08592,-7.87048 z m 20.75039,-9.45445 -10.25173,8.00101 -0.0353,0.0247 -10.11062,-7.88811 v -0.0529 l 10.25526,-8.000999 z m 20.97617,44.80984 -10.07887,7.859885 v -9.094605 l 10.07887,-7.86342 z m -20.79626,16.224247 -0.0353,0.0282 -10.11062,-7.888112 v -0.0529 l 10.25526,-8.000995 10.14588,7.916325 z m -20.58458,9.31686 v -9.09108 l 10.08592,-7.870472 v 9.091082 z m -0.17639,-60.582527 10.14589,7.91634 -10.25525,8.001 -0.0353,0.0282 -10.11061,-7.89164 v -0.0494 z m 20.69395,-0.30691 -10.07887,7.86341 v -9.10166 l 10.07887,-7.86342 z m 10.43164,17.66358 -10.07887,7.86694 v -9.0805 l 10.07887,-7.86694 z m 0.067,16.22778 -0.0353,0.0247 -10.11062,-7.88811 v -0.0529 l 10.2482,-7.99394 10.14589,7.91633 z m -20.57753,9.323915 v -9.101665 l 10.07887,-7.86342 v 9.09814 z m -10.72444,8.357302 -0.0353,0.0282 -10.11061,-7.888112 v -0.0529 l 10.25525,-8.000995 10.14589,7.916325 z m -0.06,-16.231297 -10.08592,7.873995 v -9.101665 l 10.08592,-7.87047 z m 10.43164,-17.6777 -10.08592,7.87047 v -9.08403 l 10.08592,-7.87047 z m 10.49866,-1.43933 -0.0353,0.0282 -10.11062,-7.89164 v -0.0494 l 10.25526,-8.00453 10.14588,7.91634 z m -10.43164,17.66711 -0.0353,0.0247 -10.11062,-7.88811 v -0.0529 l 10.2482,-7.99394 10.14236,7.91633 z m -31.01622,-7.86342 v -0.0529 l 10.2482,-7.99394 10.14236,7.91633 -10.24467,7.99395 -0.0353,0.0247 z m 72.9615,17.406055 -10.36461,-8.085665 v -9.36272 l 10.36461,-8.08567 0.067,-0.0529 v -9.53558 l 0.10936,-0.0882 -10.541,-8.22325 v -9.37684 l 0.10936,-0.0847 -10.541,-8.226773 v -9.366251 l 0.10936,-0.08467 -10.71738,-8.360833 -10.54101,8.22325 -0.067,0.05292 v 9.535584 l -10.25878,8.004523 -10.43517,-8.142107 -10.541,8.223247 -0.067,0.0529 v 9.54617 l -10.36461,8.08919 -0.067,0.0529 v 9.70844 l 10.43164,8.14212 v 9.35919 l -10.36461,8.085665 -0.067,0.0529 v 9.711982 l 10.42459,8.13505 v 9.53912 l 10.61861,8.28675 0.1658,-0.14817 10.26231,-8.001 10.43517,8.14211 0.17286,-0.13406 10.37167,-8.09272 0.067,-0.0529 v -9.54264 l 0.0917,-0.0741 10.16352,-7.91986 10.32228,8.05392 0.11995,0.0882 0.0988,-0.0847 10.43163,-8.14212 0.067,-0.0529 v -9.623782 h -0.067 v -0.14111" />
  </g>
</svg>
