<?xml version="1.0" encoding="iso-8859-1"?>
<!-- Generator: Adobe Illustrator 27.0.1, SVG Export Plug-In . SVG Version: 6.00 Build 0)  -->
<svg version="1.1" id="Layer_1" xmlns="http://www.w3.org/2000/svg" xmlns:xlink="http://www.w3.org/1999/xlink" x="0px" y="0px"
	 viewBox="0 0 1196.12 570.492" style="enable-background:new 0 0 1196.12 570.492;" xml:space="preserve">
<g>
	<rect y="0" style="fill:#E50019;" width="570.492" height="570.492"/>
	<g>
		<path style="fill:#FFFFFF;" d="M462.469,256.566c0-63.759-48.481-68.272-58.633-68.272c-15.761,0-30.971,3.275-46.98,9.586
			l-1.129,16.799c6.228-2.923,26.185-11.493,46.078-11.493c15.663,0,27.732,5.252,35.896,15.62
			c-53.899,28.353-86.055,51.149-90.906,70.064c-13.796,9.327-38.108,20.091-59.734,20.091c-23.049,0-32.955-9.953-37.276-15.73
			c59.144-39.789,89.8-62.744,86.045-80.864c-3.379-16.35-27.672-24.023-49.435-24.023c-22.278,0-37.576,9.614-44.819,17.081
			c-11.643,12.008-17.188,29.808-16.477,52.891c0.313,10.093,2.299,20.614,5.657,29.838c-9.07,5.899-33.782,20.839-62.156,20.839
			c-33.701,0-47.564-26.333-47.564-52.909c0-25.763,12.955-52.93,47.564-52.93c19.465,0,39.018,8.216,45.678,11.306l-1.124-16.767
			c-12.564-4.91-29.11-9.35-43.423-9.35c-57.31,0-62.04,48.105-61.78,67.711c-0.26,19.642,4.978,67.745,61.251,67.745
			c34.05,0,62.965-18.692,68.24-22.089c3.655,6.376,18.142,22.096,49.464,22.096c24.801,0,52.332-12.338,61.517-18.281
			c5.628,7.531,17.137,18.318,52.264,18.318c23.218,0,37.933-8.054,47.156-19.129c0.175,5.833,0.385,11.513,0.652,15.882
			l14.056,2.166C462.08,308.114,462.469,257.341,462.469,256.566 M238.76,264.652c-0.045-0.298-3.92-30.115,11.962-48.333
			c8.225-9.427,20.375-14.206,36.097-14.206c16.951,0,31.162,5.903,32.629,12.696c1.097,5.078-3.71,11.586-25.612,29.131
			c-0.226,0.194-22.365,18.976-50.942,35.932C241.086,275.303,239.697,270.175,238.76,264.652 M436.828,295.848
			c-8.225,9.429-20.589,13.566-36.316,13.702c-35.839,0.312-39.328-13.283-39.328-13.283c-3.71-8.333,8.385-25.154,83.296-64.853
			c1.831,4.603,3.373,10.53,4.31,16.105C448.837,247.816,452.716,277.631,436.828,295.848"/>
		<g>
			<g>
				<g>
					
						<rect id="SVGID_00000074439687693678703010000011775935195829335936_" x="121.864" y="368.295" style="fill:#FFFFFF;" width="326.755" height="13.903"/>
				</g>
				<g>
					<defs>
						<rect id="SVGID_1_" x="121.864" y="368.295" width="326.755" height="13.903"/>
					</defs>
					<clipPath id="SVGID_00000111879583898912704730000013930713325688537739_">
						<use xlink:href="#SVGID_1_"  style="overflow:visible;"/>
					</clipPath>
					<g style="clip-path:url(#SVGID_00000111879583898912704730000013930713325688537739_);">
						<g>
							
								<rect id="SVGID_00000130617485315462352710000017098057609422791552_" x="121.864" y="368.295" style="fill:#FFFFFF;" width="326.755" height="13.903"/>
						</g>
						<g>
							<defs>
								
									<rect id="SVGID_00000095338298683971302920000015334965668166704056_" x="121.864" y="368.295" width="326.755" height="13.903"/>
							</defs>
							<clipPath id="SVGID_00000001630283398820174920000015166494790987798159_">
								<use xlink:href="#SVGID_00000095338298683971302920000015334965668166704056_"  style="overflow:visible;"/>
							</clipPath>
							
								<rect x="121.864" y="368.295" style="clip-path:url(#SVGID_00000001630283398820174920000015166494790987798159_);fill:#FFFFFF;" width="326.755" height="13.903"/>
						</g>
					</g>
				</g>
			</g>
		</g>
	</g>
	<polygon style="fill:#E50019;" points="1195.541,569.921 992.5,569.921 992.5,555.325 1180.944,555.325 1180.944,366.881 
		1195.541,366.881 	"/>
</g>
<g>
	<path style="fill:#E50019;" d="M680.676,163.136c-2.994-2.995-4.492-6.652-4.492-10.98c0-4.324,1.498-7.985,4.492-10.98
		c2.994-2.994,6.652-4.491,10.98-4.491c4.156,0,7.692,1.497,10.605,4.491c2.909,2.995,4.367,6.656,4.367,10.98
		c0,4.328-1.458,7.985-4.367,10.98c-2.913,2.994-6.449,4.491-10.605,4.491C687.329,167.627,683.671,166.13,680.676,163.136z
		 M702.636,189.837V326.59h-22.709V189.837H702.636z"/>
	<path style="fill:#E50019;" d="M788.603,193.83c7.4-4.324,16.427-6.488,27.076-6.488v23.457h-5.989
		c-25.454,0-38.182,13.812-38.182,41.426v74.365h-22.709V189.837h22.709v22.21C775.502,204.229,781.198,198.158,788.603,193.83z"/>
	<path style="fill:#E50019;" d="M914.996,208.554h-28.697V326.59H863.59V208.554h-17.719v-18.717h17.719v-9.732
		c0-15.304,3.949-26.491,11.854-33.564c7.899-7.069,20.588-10.605,38.056-10.605V154.9c-9.981,0-17.012,1.957-21.087,5.864
		c-4.078,3.911-6.113,10.356-6.113,19.34v9.732h28.697v18.718H914.996z"/>
	<path style="fill:#E50019;" d="M1075.205,189.837V326.59h-22.709v-20.214c-4.328,6.987-10.356,12.438-18.093,16.346
		c-7.735,3.907-16.263,5.864-25.578,5.864c-10.648,0-20.214-2.203-28.698-6.612c-8.484-4.406-15.184-11.02-20.089-19.84
		c-4.909-8.815-7.361-19.547-7.361-32.191v-80.105h22.459v77.11c0,13.476,3.408,23.832,10.231,31.069
		c6.82,7.236,16.135,10.855,27.949,10.855c12.143,0,21.711-3.743,28.698-11.229c6.987-7.487,10.481-18.381,10.481-32.691v-75.114
		L1075.205,189.837L1075.205,189.837z"/>
</g>
</svg>
